<?xml version="1.0" encoding="utf-8"?>
<!-- Generator: Adobe Illustrator 16.0.0, SVG Export Plug-In . SVG Version: 6.00 Build 0)  -->
<!DOCTYPE svg PUBLIC "-//W3C//DTD SVG 1.1//EN" "http://www.w3.org/Graphics/SVG/1.1/DTD/svg11.dtd">
<svg version="1.1" id="Layer_1" xmlns="http://www.w3.org/2000/svg" xmlns:xlink="http://www.w3.org/1999/xlink" x="0px" y="0px"
	 width="1000px" height="1000px" viewBox="0 0 1000 1000" enable-background="new 0 0 1000 1000" xml:space="preserve">
<linearGradient id="XMLID_3_" gradientUnits="userSpaceOnUse" x1="500.0005" y1="500.0005" x2="1000.0006" y2="3.967285e-04">
	<stop  offset="0" style="stop-color:#F2CA27"/>
	<stop  offset="1" style="stop-color:#F1C40F"/>
</linearGradient>
<rect id="XMLID_1_" x="500" fill="url(#XMLID_3_)" width="500" height="500"/>
<linearGradient id="SVGID_1_" gradientUnits="userSpaceOnUse" x1="500.0005" y1="500.0005" x2="3.051758e-05" y2="3.051758e-05">
	<stop  offset="0" style="stop-color:#ED8119"/>
	<stop  offset="1" style="stop-color:#EB7300"/>
</linearGradient>
<rect fill="url(#SVGID_1_)" width="500" height="500"/>
<linearGradient id="SVGID_2_" gradientUnits="userSpaceOnUse" x1="500.0005" y1="500.0005" x2="3.967285e-04" y2="1000.0006">
	<stop  offset="0" style="stop-color:#538EC4"/>
	<stop  offset="1" style="stop-color:#4082BE"/>
</linearGradient>
<rect y="500" fill="url(#SVGID_2_)" width="500" height="500"/>
<linearGradient id="SVGID_3_" gradientUnits="userSpaceOnUse" x1="500.0005" y1="500.0005" x2="1000.0002" y2="1000.0002">
	<stop  offset="0" style="stop-color:#E05D86"/>
	<stop  offset="1" style="stop-color:#DC4B78"/>
</linearGradient>
<rect x="500" y="500" fill="url(#SVGID_3_)" width="500" height="500"/>
<g>
	<g>
		<g>
			<path fill="#FFFFFF" d="M780,196.233h-85.061V450h-60.295V196.233H550V150h230V196.233L780,196.233z"/>
		</g>
		<g>
			<path fill="#FFFFFF" d="M450,196.233h-85.061V450h-60.295V196.233H220V150h230V196.233L450,196.233z"/>
		</g>
	</g>
	<g>
		<g>
			<path fill="#FFFFFF" d="M445,850h-61.808L258.3,645.018l-1.275,0.203V850H195V550h62.024l124.892,204.775l1.276-0.205V550H445
				V850z"/>
		</g>
		<g>
			<path fill="#FFFFFF" d="M674.389,688.252h1.213L740.1,550H805L703.598,744.521V850h-59.023V741.434L545,550h64.893
				L674.389,688.252z"/>
		</g>
	</g>
</g>
<g>
	<rect y="490" fill="#282822" width="1000" height="20"/>
	<rect x="490" fill="#282822" width="20" height="1000"/>
</g>
</svg>
