<?xml version="1.0" encoding="utf-8"?>
<!-- Generator: Adobe Illustrator 16.0.0, SVG Export Plug-In . SVG Version: 6.00 Build 0)  -->
<svg version="1.2" baseProfile="tiny" id="Layer_1" xmlns="http://www.w3.org/2000/svg" xmlns:xlink="http://www.w3.org/1999/xlink"
	 x="0px" y="0px" width="612px" height="179.896px" viewBox="0 0 612 179.896" xml:space="preserve">
<g>
	<linearGradient id="SVGID_1_" gradientUnits="userSpaceOnUse" x1="49.6123" y1="84.7422" x2="101.0112" y2="84.7422">
		<stop  offset="0" style="stop-color:#FFFFFF;stop-opacity:0"/>
		<stop  offset="0.0488" style="stop-color:#E3F0F4;stop-opacity:0.0488"/>
		<stop  offset="0.1463" style="stop-color:#B1D6E1;stop-opacity:0.1463"/>
		<stop  offset="0.2487" style="stop-color:#84BED0;stop-opacity:0.2487"/>
		<stop  offset="0.3541" style="stop-color:#5FAAC1;stop-opacity:0.3541"/>
		<stop  offset="0.4632" style="stop-color:#409AB6;stop-opacity:0.4632"/>
		<stop  offset="0.5773" style="stop-color:#298EAC;stop-opacity:0.5773"/>
		<stop  offset="0.6985" style="stop-color:#1885A6;stop-opacity:0.6985"/>
		<stop  offset="0.8317" style="stop-color:#0E80A2;stop-opacity:0.8317"/>
		<stop  offset="1" style="stop-color:#0B7EA1"/>
	</linearGradient>
	<path fill="url(#SVGID_1_)" d="M75.311,23.754c-14.193,0-25.698,27.304-25.698,60.988c0,33.684,11.505,60.988,25.698,60.988
		c14.194,0,25.701-27.305,25.701-60.988C101.011,51.058,89.504,23.754,75.311,23.754z M72.767,133.752
		c-12.353,0-22.367-23.767-22.367-53.086c0-29.315,10.014-53.081,22.367-53.081c12.354,0,22.37,23.766,22.37,53.081
		C95.136,109.985,85.121,133.752,72.767,133.752z"/>
	<linearGradient id="SVGID_2_" gradientUnits="userSpaceOnUse" x1="61.6104" y1="107.4258" x2="87.8042" y2="62.0567">
		<stop  offset="0" style="stop-color:#FFFFFF;stop-opacity:0"/>
		<stop  offset="0.033" style="stop-color:#F1F3F5;stop-opacity:0.033"/>
		<stop  offset="0.1747" style="stop-color:#BBC4D0;stop-opacity:0.1747"/>
		<stop  offset="0.318" style="stop-color:#8D9CAF;stop-opacity:0.318"/>
		<stop  offset="0.4598" style="stop-color:#677B95;stop-opacity:0.4598"/>
		<stop  offset="0.5998" style="stop-color:#496280;stop-opacity:0.5998"/>
		<stop  offset="0.7376" style="stop-color:#345072;stop-opacity:0.7376"/>
		<stop  offset="0.8723" style="stop-color:#274569;stop-opacity:0.8723"/>
		<stop  offset="1" style="stop-color:#234166"/>
	</linearGradient>
	<path fill="url(#SVGID_2_)" d="M117.918,107.768c-5.219,11.228-30.927,10.286-57.421-2.104
		c-26.49-12.389-43.733-31.535-38.512-42.764c5.22-11.229,30.929-10.29,57.418,2.1C105.896,77.39,123.14,96.54,117.918,107.768
		 M19.599,58.966c-5.999,12.903,13.811,34.9,44.248,49.134c30.438,14.236,59.974,15.318,65.971,2.416
		c5.999-12.901-13.812-34.899-44.25-49.135C55.13,47.147,25.596,46.066,19.599,58.966"/>
	<linearGradient id="SVGID_3_" gradientUnits="userSpaceOnUse" x1="63.8213" y1="61.3945" x2="85.5952" y2="108.0889">
		<stop  offset="0" style="stop-color:#FFFFFF;stop-opacity:0"/>
		<stop  offset="0.0125" style="stop-color:#F6FCFD;stop-opacity:0.0125"/>
		<stop  offset="0.0867" style="stop-color:#C4EDF4;stop-opacity:0.0867"/>
		<stop  offset="0.1664" style="stop-color:#96E0EB;stop-opacity:0.1664"/>
		<stop  offset="0.2499" style="stop-color:#6FD4E4;stop-opacity:0.2499"/>
		<stop  offset="0.3379" style="stop-color:#4ECADE;stop-opacity:0.3379"/>
		<stop  offset="0.4319" style="stop-color:#33C2D9;stop-opacity:0.4319"/>
		<stop  offset="0.534" style="stop-color:#1EBCD5;stop-opacity:0.534"/>
		<stop  offset="0.6482" style="stop-color:#0FB7D2;stop-opacity:0.6482"/>
		<stop  offset="0.7844" style="stop-color:#07B5D0;stop-opacity:0.7844"/>
		<stop  offset="1" style="stop-color:#04B4D0"/>
	</linearGradient>
	<path fill="url(#SVGID_3_)" d="M29.346,103.142c-5.22-11.228,12.023-30.375,38.517-42.766c26.489-12.39,52.198-13.33,57.417-2.102
		c5.221,11.228-12.022,30.376-38.511,42.766C60.275,113.432,34.566,114.37,29.346,103.142 M129.818,58.966
		c-5.998-12.9-35.533-11.819-65.971,2.416C33.409,75.617,13.6,97.615,19.599,110.517c5.997,12.902,35.532,11.82,65.97-2.416
		C116.006,93.865,135.817,71.87,129.818,58.966"/>
	<ellipse fill="#234166" cx="71.098" cy="84.742" rx="9.031" ry="9.058"/>
	<path fill="#1A3147" d="M190.328,70.841c0.808-0.935,1.481-1.764,2.02-2.488c0.539-0.726,0.962-1.382,1.267-1.971
		c0.308-0.591,0.527-1.106,0.663-1.548c0.133-0.443,0.203-0.848,0.203-1.216c0-0.64-0.308-1.075-0.919-1.309
		c-0.613-0.234-1.544-0.35-2.793-0.35v-3.096h16.646v3.096c-0.859,0-1.686,0.165-2.481,0.497s-1.592,0.799-2.389,1.4
		c-0.795,0.602-1.616,1.339-2.462,2.212c-0.844,0.872-1.758,1.861-2.737,2.967l-10.914,12.31l15.875,22.189
		c1.446,1.988,2.835,3.494,4.171,4.514c1.334,1.02,2.701,1.53,4.097,1.53h0.147v3.168h-0.807c-2.524,0-4.594-0.099-6.211-0.294
		c-1.617-0.196-2.977-0.554-4.079-1.069c-1.103-0.516-2.066-1.21-2.885-2.082c-0.822-0.872-1.696-1.984-2.628-3.336L181.14,87.315
		l-6.394,5.197v11.646c0,1.179,0.166,2.124,0.495,2.837c0.331,0.713,0.773,1.26,1.324,1.641c0.55,0.38,1.205,0.633,1.966,0.755
		c0.759,0.124,1.555,0.186,2.389,0.186h0.991v3.168h-21.902v-3.168h0.958c0.832,0,1.622-0.056,2.368-0.167
		c0.749-0.11,1.403-0.338,1.966-0.682s1.012-0.854,1.341-1.529c0.331-0.677,0.496-1.567,0.496-2.673V67.155
		c0-1.107-0.166-1.997-0.496-2.673c-0.33-0.676-0.778-1.197-1.341-1.566c-0.563-0.369-1.218-0.608-1.966-0.718
		c-0.747-0.111-1.537-0.166-2.368-0.166h-0.958v-3.17h21.902v3.17h-0.991c-0.834,0-1.63,0.061-2.389,0.184
		c-0.761,0.124-1.416,0.375-1.966,0.756c-0.551,0.381-0.993,0.928-1.324,1.64c-0.33,0.713-0.495,1.659-0.495,2.837v21.303
		L190.328,70.841z"/>
	<path fill="#1A3147" d="M261.078,112.745l-28.221-43.489v34.903c0,1.179,0.165,2.124,0.496,2.837s0.772,1.26,1.323,1.641
		c0.551,0.38,1.206,0.633,1.967,0.755c0.758,0.124,1.556,0.186,2.388,0.186h0.992v3.168h-18.888v-3.168h0.956
		c0.857,0,1.659-0.062,2.407-0.186c0.747-0.122,1.403-0.375,1.967-0.755c0.563-0.381,1.003-0.928,1.322-1.641
		c0.319-0.713,0.478-1.658,0.478-2.837V67.155c0-1.107-0.165-1.997-0.496-2.673c-0.33-0.676-0.777-1.197-1.341-1.566
		c-0.563-0.369-1.219-0.608-1.966-0.718c-0.748-0.111-1.538-0.166-2.37-0.166h-0.956v-3.17h13.78l26.936,41.722V67.155
		c0-1.107-0.166-1.997-0.496-2.673c-0.331-0.676-0.779-1.197-1.341-1.566c-0.564-0.369-1.219-0.608-1.966-0.718
		c-0.748-0.111-1.538-0.166-2.37-0.166h-0.993v-3.17h18.888v3.17h-0.954c-0.857,0-1.661,0.061-2.408,0.184
		c-0.748,0.124-1.403,0.375-1.966,0.756c-0.563,0.381-1.004,0.928-1.322,1.64c-0.319,0.713-0.478,1.659-0.478,2.837v45.296H261.078z
		"/>
	<path fill="#1A3147" d="M299.325,108.986h14.515c1.2,0,2.223-0.165,3.068-0.498c0.846-0.33,1.55-0.779,2.114-1.344
		c0.562-0.565,1.003-1.224,1.322-1.974c0.318-0.748,0.537-1.54,0.661-2.376l0.514-3.243h3.933l-0.515,13.193H284.59v-3.168h0.956
		c0.832,0,1.624-0.056,2.37-0.167c0.747-0.11,1.402-0.338,1.966-0.682c0.561-0.344,1.011-0.854,1.341-1.529
		c0.33-0.677,0.496-1.567,0.496-2.673V67.449c0-1.178-0.16-2.125-0.478-2.837c-0.316-0.712-0.758-1.259-1.322-1.64
		c-0.565-0.381-1.219-0.632-1.967-0.756c-0.747-0.123-1.55-0.184-2.406-0.184h-0.956v-3.17h37.921l0.367,13.195h-3.894l-0.367-3.244
		c-0.098-0.835-0.29-1.627-0.571-2.377c-0.282-0.749-0.685-1.407-1.211-1.973c-0.529-0.564-1.189-1.014-1.986-1.345
		c-0.794-0.332-1.757-0.497-2.884-0.497h-12.641v20.086h18.152v3.685h-18.152V108.986z"/>
	<path fill="#1A3147" d="M377.694,59.378l9.407,32.691c0.711,2.507,1.342,4.907,1.893,7.204c0.551,2.298,0.999,4.32,1.341,6.064
		c0.367-1.818,0.791-3.728,1.269-5.73c0.479-2.003,1.059-4.221,1.746-6.653l6.615-23.292c0.073-0.295,0.157-0.627,0.256-0.996
		c0.1-0.368,0.185-0.737,0.257-1.106c0.074-0.368,0.142-0.713,0.203-1.031c0.061-0.319,0.09-0.591,0.09-0.812
		c0-1.302-0.41-2.242-1.229-2.818c-0.821-0.578-2.063-0.867-3.73-0.867h-1.725v-3.17h18.371v3.17h-1.432
		c-0.735,0-1.379,0.073-1.932,0.221c-0.549,0.147-1.047,0.43-1.486,0.847c-0.441,0.419-0.847,1.008-1.214,1.769
		c-0.368,0.762-0.735,1.77-1.103,3.023l-12.715,44.853h-6.76l-12.273-42.274l-11.502,42.274h-6.947l-13.779-46.733
		c-0.245-0.786-0.521-1.438-0.826-1.953c-0.308-0.516-0.669-0.922-1.084-1.216c-0.418-0.295-0.907-0.503-1.47-0.626
		c-0.566-0.123-1.215-0.184-1.95-0.184h-0.991v-3.17h20.728v3.17h-1.728c-1.521,0-2.652,0.289-3.399,0.867
		c-0.749,0.577-1.121,1.492-1.121,2.745c0,0.417,0.059,0.847,0.182,1.289c0.127,0.443,0.258,0.947,0.405,1.512l6.909,24.14
		c0.638,2.286,1.237,4.528,1.8,6.728c0.564,2.198,1.054,4.207,1.469,6.025c0.368-1.966,0.806-4.109,1.308-6.432
		c0.502-2.321,1.085-4.699,1.746-7.132l8.965-32.396H377.694z"/>
	<path fill="#1A3147" d="M445.025,104.159c0,1.179,0.166,2.124,0.495,2.837c0.331,0.713,0.773,1.26,1.323,1.641
		c0.552,0.38,1.206,0.633,1.966,0.755c0.76,0.124,1.556,0.186,2.389,0.186h1.728v3.168h-23.408v-3.168h1.727
		c0.833,0,1.624-0.056,2.371-0.167c0.746-0.11,1.402-0.338,1.966-0.682c0.562-0.344,1.011-0.854,1.342-1.529
		c0.33-0.677,0.496-1.567,0.496-2.673V62.622h-7.203c-1.103,0-2.027,0.166-2.775,0.497c-0.745,0.331-1.358,0.781-1.835,1.345
		c-0.478,0.565-0.835,1.224-1.065,1.973c-0.235,0.75-0.398,1.542-0.497,2.377l-0.406,3.244h-3.894l0.369-13.195h42.367l0.367,13.195
		h-3.894l-0.366-3.244c-0.101-0.835-0.272-1.627-0.518-2.377c-0.243-0.749-0.598-1.407-1.063-1.973
		c-0.468-0.564-1.08-1.014-1.839-1.345c-0.758-0.332-1.703-0.497-2.829-0.497h-7.312V104.159z"/>
	<path fill="#1A3147" d="M518.921,85.73c0,4.153-0.515,7.937-1.543,11.353c-1.029,3.415-2.549,6.338-4.558,8.77
		c-2.009,2.433-4.481,4.313-7.422,5.642c-2.941,1.325-6.31,1.989-10.105,1.989c-3.994,0-7.472-0.664-10.437-1.989
		c-2.966-1.328-5.425-3.209-7.387-5.642c-1.96-2.432-3.429-5.361-4.408-8.789s-1.471-7.229-1.471-11.407
		c0-4.176,0.491-7.967,1.471-11.37c0.979-3.404,2.448-6.309,4.408-8.717c1.962-2.408,4.435-4.269,7.424-5.584
		c2.988-1.314,6.48-1.971,10.473-1.971c3.797,0,7.154,0.657,10.069,1.971c2.914,1.315,5.376,3.183,7.385,5.603
		c2.009,2.42,3.528,5.332,4.558,8.735C518.406,77.727,518.921,81.528,518.921,85.73z M479.934,85.73
		c0,3.734,0.273,7.07,0.825,10.006c0.552,2.937,1.44,5.418,2.664,7.445c1.225,2.028,2.812,3.575,4.758,4.644
		c1.948,1.07,4.318,1.604,7.112,1.604c2.791,0,5.163-0.533,7.11-1.604c1.947-1.068,3.527-2.615,4.738-4.644
		c1.216-2.027,2.09-4.509,2.63-7.445c0.538-2.936,0.809-6.271,0.809-10.006c0-3.735-0.271-7.07-0.809-10.006
		c-0.54-2.936-1.414-5.413-2.63-7.426c-1.211-2.015-2.778-3.552-4.702-4.608c-1.922-1.056-4.28-1.585-7.073-1.585
		c-2.794,0-5.169,0.529-7.128,1.585c-1.962,1.056-3.56,2.593-4.797,4.608c-1.237,2.014-2.131,4.49-2.683,7.426
		S479.934,81.996,479.934,85.73z"/>
	<path fill="#1A3147" d="M568.739,112.745l-28.222-43.489v34.903c0,1.179,0.166,2.124,0.496,2.837
		c0.332,0.713,0.771,1.26,1.323,1.641c0.552,0.38,1.207,0.633,1.966,0.755c0.761,0.124,1.555,0.186,2.387,0.186h0.993v3.168h-18.886
		v-3.168h0.954c0.857,0,1.659-0.062,2.408-0.186c0.746-0.122,1.402-0.375,1.966-0.755c0.562-0.381,1.005-0.928,1.323-1.641
		s0.476-1.658,0.476-2.837V67.155c0-1.107-0.164-1.997-0.495-2.673s-0.777-1.197-1.34-1.566c-0.566-0.369-1.221-0.608-1.969-0.718
		c-0.747-0.111-1.536-0.166-2.369-0.166h-0.954v-3.17h13.778l26.936,41.722V67.155c0-1.107-0.163-1.997-0.494-2.673
		s-0.778-1.197-1.344-1.566c-0.562-0.369-1.216-0.608-1.965-0.718c-0.747-0.111-1.537-0.166-2.369-0.166h-0.993v-3.17h18.889v3.17
		h-0.956c-0.854,0-1.661,0.061-2.406,0.184c-0.748,0.124-1.403,0.375-1.967,0.756c-0.563,0.381-1.004,0.928-1.322,1.64
		c-0.316,0.713-0.478,1.659-0.478,2.837v45.296H568.739z"/>
</g>
</svg>
